<?xml version="1.0" encoding="UTF-8" standalone="no"?>
<svg xmlns="http://www.w3.org/2000/svg" xmlns:xlink="http://www.w3.org/1999/xlink" class="card" face="5S" height="93mm" preserveAspectRatio="none" viewBox="-118 -176.5 236 353" width="62mm"><defs><symbol id="SS5" viewBox="-600 -600 1200 1200" preserveAspectRatio="xMinYMid"><path d="M0 -500C100 -250 355 -100 355 185A150 150 0 0 1 55 185A10 10 0 0 0 35 185C35 385 85 400 130 500L-130 500C-85 400 -35 385 -35 185A10 10 0 0 0 -55 185A150 150 0 0 1 -355 185C-355 -100 -100 -250 0 -500Z" fill="black"></path></symbol><symbol id="VS5" viewBox="-500 -500 1000 1000" preserveAspectRatio="xMinYMid"><path d="M170 -460L-175 -460L-210 -115C-210 -115 -200 -200 0 -200C100 -200 255 -80 255 120C255 320 180 460 -20 460C-220 460 -255 285 -255 285" stroke="black" stroke-width="80" stroke-linecap="square" stroke-miterlimit="1.5" fill="none"></path></symbol></defs><rect x="-212" y="-329" width="424" height="658" fill="white"></rect><rect width="211" height="328" x="-105.5" y="-164" rx="19" ry="19" fill="white" stroke="black"></rect><use xlink:href="#VS5" height="50" width="50" x="-102" y="-145.5"></use><use xlink:href="#SS5" height="41.827" width="41.827" x="-97.913" y="-90.5"></use><use xlink:href="#VS5" height="104" width="104" x="-52" y="-52"></use><g transform="rotate(180)"><use xlink:href="#VS5" height="50" width="50" x="-102" y="-145.5"></use><use xlink:href="#SS5" height="41.827" width="41.827" x="-97.913" y="-90.5"></use></g></svg>