<?xml version="1.0" encoding="UTF-8" standalone="no"?>
<svg xmlns="http://www.w3.org/2000/svg" xmlns:xlink="http://www.w3.org/1999/xlink" class="card" face="JD" height="93mm" preserveAspectRatio="none" viewBox="-118 -176.5 236 353" width="62mm"><defs><symbol id="SDJ" viewBox="-600 -600 1200 1200" preserveAspectRatio="xMinYMid"><path d="M-400 0C-350 0 0 -450 0 -500C0 -450 350 0 400 0C350 0 0 450 0 500C0 450 -350 0 -400 0Z" fill="#d10000"></path></symbol><symbol id="VDJ" viewBox="-500 -500 1000 1000" preserveAspectRatio="xMinYMid"><path d="M50 -460L250 -460M150 -460L150 250A100 100 0 0 1 -250 250L-250 220" stroke="#d10000" stroke-width="80" stroke-linecap="square" stroke-miterlimit="1.5" fill="none"></path></symbol></defs><rect x="-212" y="-329" width="424" height="658" fill="white"></rect><rect width="211" height="328" x="-105.5" y="-164" rx="19" ry="19" fill="white" stroke="black"></rect><use xlink:href="#VDJ" height="104" width="104" x="-52" y="-52"></use><use xlink:href="#VDJ" height="50" width="50" x="-102" y="-145.5"></use><use xlink:href="#SDJ" height="41.827" width="41.827" x="-97.913" y="-90.5"></use><g transform="rotate(180)"><use xlink:href="#VDJ" height="50" width="50" x="-102" y="-145.5"></use><use xlink:href="#SDJ" height="41.827" width="41.827" x="-97.913" y="-90.5"></use></g></svg>